<?xml version="1.0" encoding="UTF-8"?>
<svg width="23px" height="23px" viewBox="0 0 23 23" xmlns="http://www.w3.org/2000/svg" xmlns:xlink="http://www.w3.org/1999/xlink" version="1.1">
 <!-- Generated by Pixelmator Pro 2.2 -->
 <path id="Path" d="M3.756 2.894 L19.392 2.894 C20.349 2.894 21.266 3.275 21.943 3.952 22.62 4.628 23 5.546 23 6.503 L23 17.328 C23 18.285 22.62 19.202 21.943 19.879 21.266 20.556 20.349 20.936 19.392 20.936 L3.756 20.936 C2.799 20.936 1.881 20.556 1.204 19.879 0.527 19.202 0.148 18.285 0.148 17.328 L0.148 6.503 C0.148 5.546 0.527 4.628 1.204 3.952 1.881 3.275 2.799 2.894 3.756 2.894 Z M3.756 4.098 C3.169 4.098 2.63 4.307 2.212 4.657 L11.573 10.737 20.934 4.657 C20.503 4.295 19.956 4.097 19.392 4.098 Z M11.573 12.171 L1.512 5.637 C1.405 5.913 1.35 6.206 1.35 6.503 L1.35 17.328 C1.35 17.966 1.604 18.578 2.055 19.029 2.506 19.479 3.117 19.733 3.756 19.733 L19.392 19.733 C20.029 19.733 20.642 19.479 21.093 19.029 21.544 18.578 21.797 17.966 21.797 17.328 L21.797 6.503 C21.797 6.197 21.741 5.905 21.636 5.637 L11.573 12.169 Z" fill="#ffffff" fill-opacity="1" stroke="none"/>
</svg>
