<svg width="23" height="23" viewBox="0 0 23 23" fill="none" xmlns="http://www.w3.org/2000/svg">
<path d="M7.66667 5.75C7.66667 5.93954 7.61046 6.12482 7.50516 6.28242C7.39986 6.44002 7.25018 6.56285 7.07507 6.63538C6.89996 6.70792 6.70727 6.7269 6.52137 6.68992C6.33547 6.65294 6.16471 6.56167 6.03069 6.42764C5.89666 6.29362 5.80539 6.12286 5.76841 5.93696C5.73144 5.75106 5.75041 5.55837 5.82295 5.38326C5.89548 5.20815 6.01831 5.05848 6.17591 4.95318C6.33351 4.84787 6.51879 4.79167 6.70833 4.79167C6.9625 4.79167 7.20625 4.89263 7.38598 5.07236C7.5657 5.25208 7.66667 5.49583 7.66667 5.75ZM6.70833 9.10429C6.58125 9.10429 6.45937 9.15477 6.36951 9.24463C6.27965 9.33449 6.22917 9.45637 6.22917 9.58345V17.2501C6.22917 17.3772 6.27965 17.4991 6.36951 17.5889C6.45937 17.6788 6.58125 17.7293 6.70833 17.7293C6.83542 17.7293 6.95729 17.6788 7.04716 17.5889C7.13702 17.4991 7.1875 17.3772 7.1875 17.2501V9.58345C7.1875 9.45637 7.13702 9.33449 7.04716 9.24463C6.95729 9.15477 6.83542 9.10429 6.70833 9.10429ZM13.8958 9.10429C13.3516 9.10422 12.8136 9.22032 12.3178 9.44483C11.822 9.66934 11.3798 9.9971 11.0208 10.4062V9.58333C11.0208 9.45625 10.9703 9.33437 10.8805 9.24451C10.7906 9.15465 10.6687 9.10417 10.5417 9.10417C10.4146 9.10417 10.2927 9.15465 10.2028 9.24451C10.113 9.33437 10.0625 9.45625 10.0625 9.58333V17.25C10.0625 17.3771 10.113 17.499 10.2028 17.5888C10.2927 17.6787 10.4146 17.7292 10.5417 17.7292C10.6687 17.7292 10.7906 17.6787 10.8805 17.5888C10.9703 17.499 11.0208 17.3771 11.0208 17.25V12.9375C11.0208 12.175 11.3237 11.4437 11.8629 10.9046C12.4021 10.3654 13.1333 10.0625 13.8958 10.0625C14.6583 10.0625 15.3896 10.3654 15.9288 10.9046C16.4679 11.4437 16.7708 12.175 16.7708 12.9375V17.25C16.7708 17.3771 16.8213 17.499 16.9112 17.5888C17.001 17.6787 17.1229 17.7292 17.25 17.7292C17.3771 17.7292 17.499 17.6787 17.5888 17.5888C17.6787 17.499 17.7292 17.3771 17.7292 17.25V12.9375C17.728 11.9212 17.3238 10.9468 16.6051 10.2282C15.8865 9.50954 14.9121 9.10543 13.8958 9.10429ZM23 1.4375V21.5625C22.9996 21.9436 22.848 22.309 22.5785 22.5785C22.309 22.848 21.9436 22.9996 21.5625 23H1.4375C1.05639 22.9996 0.691012 22.848 0.421524 22.5785C0.152037 22.309 0.000443855 21.9436 0 21.5625V1.4375C0.000443855 1.05639 0.152037 0.691012 0.421524 0.421524C0.691012 0.152037 1.05639 0.000443855 1.4375 0H21.5625C21.9436 0.000443855 22.309 0.152037 22.5785 0.421524C22.848 0.691012 22.9996 1.05639 23 1.4375ZM22.0417 1.4375C22.0415 1.31047 21.991 1.18868 21.9011 1.09885C21.8113 1.00903 21.6895 0.958492 21.5625 0.958333H1.4375C1.31047 0.958492 1.18868 1.00903 1.09885 1.09885C1.00903 1.18868 0.958492 1.31047 0.958333 1.4375V21.5625C0.958492 21.6895 1.00903 21.8113 1.09885 21.9011C1.18868 21.991 1.31047 22.0415 1.4375 22.0417H21.5625C21.6895 22.0415 21.8113 21.991 21.9011 21.9011C21.991 21.8113 22.0415 21.6895 22.0417 21.5625V1.4375Z" fill="white"/>
</svg>
